<svg version="1.0" xmlns="http://www.w3.org/2000/svg" viewBox="0 0 24 24" width="24" height="24"><path d="M0 12v12h24V0H0zm10.688-4.838c.488.488.975 1.275 1.125 1.725.375 1.35-1.163 1.125-1.875-.225-1.087-2.138-4.2-1.763-5.063.563-.9 2.362-.15 6.488 1.313 7.05 1.05.375 3.375.262 3.863-.225.262-.262.45-1.013.45-1.688 0-1.2-.038-1.237-1.5-1.237-1.087 0-1.5-.15-1.5-.563 0-.45.488-.563 2.25-.563h2.25v2.25c0 2.55-.525 3.15-3.225 3.563C5.213 18.413 3 16.125 3 11.887c0-4.275 1.537-6.038 4.988-5.775 1.313.112 2.063.413 2.7 1.05m6.113-.525c.188.637-.975 1.087-1.5.563a.684.684 0 0 1-.112-.825c.338-.525 1.388-.338 1.612.262m3.375.225c.075.413-.112.637-.6.637-.9 0-1.2-.3-.938-.975.262-.75 1.388-.488 1.537.338m.112 3.188c.938.862 1.2 1.425 1.35 2.925.488 5.813-7.012 6.938-7.65 1.125-.375-3.113 1.163-5.063 3.9-5.1.825 0 1.612.338 2.4 1.05"/><path d="M16.65 10.425c-1.35.862-1.688 4.012-.6 5.25 1.875 2.213 4.65.112 4.05-3.075-.338-1.875-2.175-3.037-3.45-2.175"/></svg>